# xmcd
#
# Track frame offsets:
#	150
#	11611
#	21779
#	34232
#	44363
#	57142
#	71121
#	80539
#	93561
#	103383
#	117870
#	131512
#	141203
#	153491
#	164845
#	178589
#
# Disc length: 2547
#
# Revision: 1
# Processed by: cddbd v1.5.1PL0 Copyright (c) Steve Scherf et al.
# Submitted via: dBpowerAMP V4.0
# Normalized: r0:TDELIM( - )
#
DISCID=e209f110
DTITLE=Various Artist - Country Lovin' ~ Classic Country Love Songs  [CD.2]
DYEAR=2002
DGENRE=Country
TTITLE0=Patsy Cline - Walkin' After Midnight
TTITLE1=Jim Reeves - He'll Have To Go
TTITLE2=Charley Pride - Crystal Chandeliers
TTITLE3=Waylon Jennings - White Lightning
TTITLE4=Johnny Paycheck - Take This Job And Shove It
TTITLE5=George Jones - Cold Cold Heart
TTITLE6=Charley Pride - Kiss An Angel Good Morning
TTITLE7=Wanda Jackson - I Fall To Pieces
TTITLE8=Hank Locklin - Please Help Me I'm Falling
TTITLE9=Johnny Paycheck - I'm The Only Hell Mama Ever Raised
TTITLE10=Waylon Jennings - Love Of The Common People
TTITLE11=George Jones - World's Worst Loser
TTITLE12=Jim Reeves - Four Walls
TTITLE13=Willie Nelson - Night Life
TTITLE14=Patsy Cline - A Church, A Courtroom Then Goodbye
TTITLE15=Charley Pride - Help Me Make It Through The Night
EXTD=
EXTT0=
EXTT1=
EXTT2=
EXTT3=
EXTT4=
EXTT5=
EXTT6=
EXTT7=
EXTT8=
EXTT9=
EXTT10=
EXTT11=
EXTT12=
EXTT13=
EXTT14=
EXTT15=
PLAYORDER=
